<svg width="182" height="38" viewBox="0 0 182 38" fill="none" xmlns="http://www.w3.org/2000/svg">
<path d="M18.98 37.96C29.4624 37.96 37.96 29.4624 37.96 18.98C37.96 8.49763 29.4624 0 18.98 0C8.49763 0 0 8.49763 0 18.98C0 29.4624 8.49763 37.96 18.98 37.96Z" fill="#00C1FE"/>
<path d="M28.0835 9.37257C25.4968 9.43975 22.9102 9.47335 20.3235 9.57413C18.7446 9.64131 17.1322 9.57413 15.5533 9.74209C13.7057 9.94365 11.8581 10.3468 10.2792 11.4553C7.99491 13.0678 7.02071 15.856 6.68478 18.6106C6.55041 19.6856 6.55042 20.7606 6.55042 21.8355C6.55042 22.373 6.584 22.9105 6.584 23.448C6.584 23.7167 6.6176 23.9855 6.6176 24.2542C6.6176 24.355 6.65119 24.691 6.65119 24.8253C6.81916 24.4894 6.98712 23.9855 7.12149 23.6496C7.28946 23.1793 7.52461 22.7426 7.75976 22.3394C8.73395 20.6934 10.2456 19.5176 12.0597 18.9466C13.7393 18.4091 15.5197 18.3083 17.2666 18.2411C19.1142 18.1403 20.9282 18.006 22.7758 17.8716C23.9516 17.8044 25.1609 17.6028 26.3031 17.1997C27.8483 16.5951 29.1585 15.3857 29.8639 13.8068C30.2334 13.0006 30.4014 12.1608 30.5694 11.321C30.603 11.1194 30.8717 9.67491 30.9725 9.30539C30.0319 9.33898 29.0577 9.37257 28.0835 9.37257Z" fill="white"/>
<path d="M23.4813 21.6675C21.4657 21.701 19.4837 21.7682 17.4682 21.8354C16.2588 21.869 15.0159 21.8354 13.7729 21.9698C12.3284 22.1378 10.9176 22.4401 9.70821 23.3135C7.92778 24.5565 7.18873 26.7064 6.91999 28.8564C6.81921 29.6962 6.81921 30.5024 6.81921 31.3422C6.81921 31.7453 6.8528 32.182 6.8528 32.5852C6.8528 32.7867 6.85281 32.9883 6.8864 33.2234C6.8864 33.2906 6.8864 33.5594 6.91999 33.6601C7.05436 33.3914 7.18873 33.0219 7.28951 32.7531C7.42388 32.3836 7.59185 32.0477 7.79341 31.7453C8.56604 30.4688 9.7082 29.5618 11.1191 29.1251C12.4292 28.6884 13.8065 28.6212 15.1503 28.5876C16.5612 28.5204 18.0057 28.4196 19.4166 28.3189C20.3236 28.2517 21.2642 28.1173 22.1376 27.7814C23.3469 27.3111 24.3547 26.3705 24.8922 25.1611C25.1609 24.5565 25.3289 23.8846 25.4297 23.2463C25.4633 23.112 25.6648 21.9698 25.732 21.6675C24.993 21.6339 24.2539 21.6675 23.4813 21.6675Z" fill="white"/>
<path d="M45.0815 18.4423C45.0815 16.7627 45.2831 15.3854 45.7198 14.2432C46.1565 13.1011 46.7276 12.1941 47.4666 11.4886C48.2057 10.7832 49.0791 10.2793 50.0533 9.97693C51.061 9.6746 52.1024 9.50662 53.2446 9.50662H60.3663V13.269H53.7821C52.7071 13.269 51.7665 13.5378 50.9939 14.1089C50.1876 14.6799 49.7173 15.6541 49.4822 17.065H60.3663V20.861H49.3478V28.453H45.0479V18.4423H45.0815Z" fill="#1A1A1A"/>
<path d="M64.868 9.47336H69.1679V28.4534H64.868V9.47336Z" fill="#1A1A1A"/>
<path d="M74.5766 9.47336H78.8765V20.7942C78.8765 21.5332 78.9772 22.1379 79.2124 22.6418C79.4475 23.1457 79.7499 23.5488 80.153 23.8511C80.5561 24.1535 81.0264 24.3886 81.5639 24.4894C82.1014 24.6238 82.6725 24.691 83.2771 24.691H88.3161V28.4869H83.2771C82.1014 28.4869 80.9592 28.3526 79.9178 28.1174C78.8429 27.8487 77.9358 27.4456 77.1296 26.8409C76.3234 26.2362 75.7187 25.4636 75.2484 24.4894C74.7781 23.5152 74.543 22.3059 74.543 20.8614V9.47336H74.5766Z" fill="#1A1A1A"/>
<path d="M96.815 27.9831C95.8072 27.6471 94.9674 27.1096 94.2284 26.3706C93.4893 25.6316 92.9182 24.6574 92.4815 23.4144C92.0448 22.2051 91.8433 20.727 91.8433 18.9802C91.8433 17.2333 92.0448 15.7552 92.4815 14.5459C92.9182 13.3365 93.4893 12.3623 94.2284 11.5897C94.9674 10.8507 95.8408 10.3132 96.815 9.97725C97.8228 9.64132 98.8642 9.47336 99.9728 9.47336H107.128V13.2694H100.51C99.5024 13.2694 98.5954 13.5381 97.7892 14.1092C96.983 14.6803 96.4791 15.6545 96.2103 17.0654H107.094V20.8614H96.2103C96.3447 21.5668 96.5463 22.1715 96.815 22.6418C97.0838 23.1121 97.4197 23.5152 97.7892 23.8175C98.1587 24.1199 98.5618 24.3214 99.0321 24.4558C99.5024 24.5902 99.9728 24.6574 100.477 24.6574H107.094V28.4534H99.9392C98.8642 28.487 97.8228 28.319 96.815 27.9831Z" fill="#1A1A1A"/>
<path d="M116.87 27.9831C115.862 27.6471 115.022 27.1096 114.283 26.3706C113.544 25.6316 112.973 24.6574 112.537 23.4144C112.1 22.2051 111.898 20.727 111.898 18.9802C111.898 17.2333 112.1 15.7552 112.537 14.5459C112.973 13.3365 113.544 12.3623 114.283 11.5897C115.022 10.8507 115.896 10.3132 116.87 9.97725C117.878 9.64132 118.919 9.47336 120.028 9.47336H127.183V13.2694H120.565C119.961 13.2694 119.39 13.3701 118.852 13.5381C118.315 13.7061 117.844 14.042 117.475 14.4787C117.072 14.9154 116.769 15.5201 116.534 16.2255C116.299 16.9646 116.198 17.8716 116.198 18.9802C116.198 20.0551 116.299 20.9957 116.534 21.7348C116.769 22.4738 117.072 23.0449 117.475 23.4816C117.878 23.9183 118.348 24.2207 118.852 24.4222C119.39 24.5902 119.961 24.691 120.565 24.691H127.183V28.4869H120.028C118.919 28.4869 117.878 28.319 116.87 27.9831Z" fill="#1A1A1A"/>
<path d="M138.537 9.47336H142.871L151.336 28.4534H146.566L144.987 24.7917H136.421C136.186 25.3292 135.917 25.9675 135.615 26.6393C135.312 27.3112 135.043 27.9159 134.808 28.4869H130.038L138.537 9.47336ZM143.408 20.9957C143.173 20.4246 142.938 19.8872 142.736 19.3833C142.535 18.8794 142.3 18.3755 142.064 17.8716C141.829 17.3677 141.628 16.8638 141.393 16.3599C141.157 15.856 140.922 15.2849 140.687 14.7138L137.966 20.9957H143.408Z" fill="#1A1A1A"/>
<path d="M154.494 9.47336H165.412C166.285 9.47336 167.125 9.57414 167.931 9.80929C168.738 10.0444 169.409 10.3804 169.98 10.9178C170.552 11.4217 171.022 12.0936 171.358 12.8998C171.694 13.7061 171.895 14.7139 171.895 15.856C171.895 17.1325 171.727 18.1739 171.358 19.0137C171.022 19.8536 170.552 20.5254 169.98 21.0293C169.409 21.5332 168.704 21.9027 167.931 22.1043C167.125 22.3058 166.285 22.4066 165.412 22.4066H158.794V28.4534H154.494V9.47336ZM165.445 18.6442C166.05 18.6442 166.588 18.4427 166.991 18.0396C167.427 17.6364 167.629 16.8974 167.629 15.856C167.629 14.9154 167.427 14.2435 166.991 13.874C166.554 13.5045 166.05 13.3029 165.445 13.3029H158.828V18.6442H165.445Z" fill="#1A1A1A"/>
<path d="M177.74 12.7654C175.826 12.7654 174.28 11.2201 174.28 9.30532C174.28 7.39053 175.826 5.84525 177.74 5.84525C179.655 5.84525 181.201 7.39053 181.201 9.30532C181.201 11.2201 179.655 12.7654 177.74 12.7654ZM177.74 6.38273C176.128 6.38273 174.818 7.69286 174.818 9.30532C174.818 10.9178 176.128 12.2279 177.74 12.2279C179.353 12.2279 180.663 10.9178 180.663 9.30532C180.663 7.69286 179.353 6.38273 177.74 6.38273Z" fill="#1A1A1A"/>
<path d="M178.681 10.6827L178.042 9.80925C177.975 9.80925 177.908 9.80925 177.807 9.80925H177.068V10.6827H176.766V7.96164H177.774C178.479 7.96164 178.882 8.29756 178.882 8.90224C178.882 9.33895 178.647 9.64128 178.244 9.77566L178.916 10.7163H178.681V10.6827ZM178.647 8.90224C178.647 8.46553 178.345 8.23038 177.807 8.23038H177.068V9.60769H177.807C178.378 9.5741 178.647 9.30535 178.647 8.90224Z" fill="#1A1A1A"/>
</svg>
